<svg width="90" height="28" viewBox="0 0 90 28" fill="none" xmlns="http://www.w3.org/2000/svg">
<g clip-path="url(#clip0_0_221)">
<rect width="90" height="28" fill="black"/>
<path d="M24.8411 15.9584C23.8932 20.589 19.6495 24.0821 14.5559 24.0821C8.76649 24.0821 4.0725 19.5686 4.0725 13.9995C4.0725 8.43035 8.76541 3.91683 14.5559 3.91683C19.6484 3.91683 23.8932 7.40997 24.8411 12.0405L28.8392 11.2905C27.5273 4.85641 21.6313 0 14.5559 0C6.51751 0 0 6.26838 0 13.9995C0 21.7306 6.51751 27.999 14.5559 27.999C21.6313 27.999 27.5273 23.1436 28.8392 16.7074L24.8411 15.9574V15.9584Z" fill="#C1C1C1"/>
<path d="M45.5568 24.0821C39.7674 24.0821 35.0735 5.56809 35.0735 0H30.9999C30.9999 7.73214 37.5174 28 45.5558 28C53.5941 28 60.1127 7.73214 60.1127 0H56.0391C56.0391 5.56809 51.3462 24.0821 45.5558 24.0821H45.5568Z" fill="#C1C1C1"/>
<path d="M90 3.91787V0C81.9606 0 60.8872 6.26838 60.8872 13.9995C60.8872 21.7306 81.9606 27.999 90 27.999V24.0811C84.9075 24.0811 66.1079 20.588 65.1601 15.9574H90V12.0395H65.1601C66.1079 7.40893 84.9075 3.91579 90 3.91579V3.91787Z" fill="#C1C1C1"/>
</g>
<defs>
<clipPath id="clip0_0_221">
<rect width="90" height="28" fill="white"/>
</clipPath>
</defs>
</svg>
