<svg width="55" height="29" viewBox="0 0 55 29" fill="none" xmlns="http://www.w3.org/2000/svg">
<g clip-path="url(#clip0_0_206)">
<rect width="55" height="29" fill="black"/>
<path d="M18.7642 28.1644C17.3569 28.7198 15.9396 29 14.5073 29C12.2466 29 10.2155 28.6297 8.40895 27.8942C6.6024 27.1587 5.0803 26.143 3.84266 24.8471C2.60503 23.5512 1.65185 22.0302 0.993104 20.284C0.329371 18.5378 0 16.6515 0 14.6351C0 12.6187 0.329371 10.6423 0.993104 8.87112C1.65185 7.0999 2.60503 5.54883 3.84266 4.23292C5.0803 2.91701 6.6024 1.87629 8.40895 1.12578C10.2155 0.375259 12.2466 0 14.5073 0C16.0244 0 17.4916 0.215148 18.9089 0.640442C20.3262 1.06573 21.6087 1.69617 22.7516 2.52174C23.8944 3.35231 24.8376 4.37302 25.5812 5.58885C26.3247 6.80469 26.7789 8.20566 26.9436 9.78174H20.7454C20.3561 8.23068 19.6126 7.06487 18.5147 6.28934C17.4118 5.5138 16.0743 5.12353 14.5073 5.12353C13.0451 5.12353 11.8075 5.38872 10.7894 5.91908C9.77135 6.44945 8.94293 7.15994 8.30914 8.05556C7.67535 8.94617 7.21123 9.96187 6.92179 11.1027C6.63234 12.2434 6.48761 13.4193 6.48761 14.6351C6.48761 15.8509 6.63234 16.9317 6.92179 18.0324C7.21123 19.1332 7.67036 20.1239 8.30914 21.0045C8.94293 21.8851 9.77135 22.5906 10.7894 23.1209C11.8075 23.6513 13.0501 23.9165 14.5073 23.9165C16.6582 23.9165 18.315 23.4061 19.4878 22.3804C20.6606 21.3597 21.3393 19.8737 21.5339 17.9324H15.0014V13.3892H27.4027V28.3796H22.8713L22.6118 25.2374C21.454 26.6334 20.1715 27.614 18.7692 28.1694L18.7642 28.1644Z" fill="#C1C1C1"/>
<path d="M36.8796 0.660156L48.9615 19.253H49.0413V0.660156H55V28.3743H48.6371L36.5951 9.82147H36.5153V28.3743H30.5566V0.660156H36.8796Z" fill="#C1C1C1"/>
</g>
<defs>
<clipPath id="clip0_0_206">
<rect width="55" height="29" fill="white"/>
</clipPath>
</defs>
</svg>
